<svg xmlns="http://www.w3.org/2000/svg" xmlns:xlink="http://www.w3.org/1999/xlink" viewBox="0 0 342.46 134.76"><defs><style>.cls-1{fill:url(#linear-gradient);}.cls-2{fill:url(#linear-gradient-2);}.cls-3,.cls-6{fill:#6258a6;}.cls-4{fill:url(#linear-gradient-3);}.cls-5{fill:#f37051;}.cls-6{font-size:19.95px;font-family:PTSansPro-Regular, PT Sans Pro;letter-spacing:0.44em;}.cls-7{letter-spacing:0.36em;}.cls-8{letter-spacing:0.43em;}.cls-9{letter-spacing:0.37em;}.cls-10{letter-spacing:0.39em;}</style><linearGradient id="linear-gradient" x1="998.48" y1="-984.47" x2="959.27" y2="-958.86" gradientTransform="translate(-925.81 1026.37)" gradientUnits="userSpaceOnUse"><stop offset="0" stop-color="#6258a6"/><stop offset="1" stop-color="#f37051"/></linearGradient><linearGradient id="linear-gradient-2" x1="1013.88" y1="-979.04" x2="1030.08" y2="-999.44" xlink:href="#linear-gradient"/><linearGradient id="linear-gradient-3" x1="1017.99" y1="-958.88" x2="1017.99" y2="-929.06" xlink:href="#linear-gradient"/></defs><g id="Layer_2" data-name="Layer 2"><g id="Layer_1-2" data-name="Layer 1"><path class="cls-1" d="M0,40.29v83a11.36,11.36,0,0,0,11.36,11.36h0A11.36,11.36,0,0,0,22.71,123.3V70.42L43,90.2A12.34,12.34,0,0,0,60.38,90L81.1,69a11.53,11.53,0,0,0-.19-16.34h0a11.53,11.53,0,0,0-16-.08l-13.68,13L18.47,32.66A10.81,10.81,0,0,0,0,40.29Z"/><path class="cls-2" d="M112,11.5a8.57,8.57,0,0,0-6.61,5.67,8.67,8.67,0,0,0-.44,3.47,9.43,9.43,0,0,1-5.59,9.56l-.17.07a9.58,9.58,0,0,1-5.17.47,10.88,10.88,0,0,0-4.62.21A11.19,11.19,0,1,0,103,44.47a11.09,11.09,0,0,0,.12-4.85,8.53,8.53,0,0,1,.39-4.82,12.53,12.53,0,0,1,2-3.48,8.68,8.68,0,0,1,7.3-2.82,8.19,8.19,0,0,0,3.3-.44A8.57,8.57,0,0,0,112,11.5Z"/><circle class="cls-3" cx="92.18" cy="6.75" r="6.75"/><rect class="cls-4" x="81.51" y="69.45" width="21.34" height="64.49" rx="10.67"/><path class="cls-5" d="M127.58,80.81a4.16,4.16,0,0,1,.45-2,3.48,3.48,0,0,1,1.19-1.3,4.82,4.82,0,0,1,1.69-.69,8.94,8.94,0,0,1,1.94-.21,15,15,0,0,1,2.6.19,3,3,0,0,1,1.66.84,4.48,4.48,0,0,1,1,1.94c.24.87.49,2,.74,3.53l2,12.29c0,.1.06.26.1.48a3.82,3.82,0,0,0,.15.67c.06.23.12.42.18.6s.12.26.17.26.11-.09.18-.26a3,3,0,0,0,.19-.6l.15-.65a2.26,2.26,0,0,0,.07-.39L144,82.92a27,27,0,0,1,.73-3.43,4.36,4.36,0,0,1,1-1.91,3.1,3.1,0,0,1,1.69-.82,16,16,0,0,1,2.67-.19,7.09,7.09,0,0,1,3.82.93,3.48,3.48,0,0,1,1.49,3.2v22.13a.33.33,0,0,1-.37.37h-4.64a.33.33,0,0,1-.37-.37V82.59s0-.16,0-.32-.1-.24-.22-.24a.33.33,0,0,0-.28.13,1.61,1.61,0,0,0-.17.28,1.16,1.16,0,0,0-.09.34c0,.17-.08.35-.11.55l-.12.6a3.65,3.65,0,0,1-.09.44c-.15.62-.29,1.27-.43,1.95s-.32,1.59-.57,2.71-.55,2.56-.91,4.31-.84,4-1.43,6.7a4.68,4.68,0,0,1-.37,1.15,3.39,3.39,0,0,1-.73,1,3.45,3.45,0,0,1-1.24.73,6.09,6.09,0,0,1-2,.28,5.11,5.11,0,0,1-1.76-.26,3.69,3.69,0,0,1-1.13-.65,2.55,2.55,0,0,1-.67-.88,5.8,5.8,0,0,1-.34-.92l-3.71-17.68a3.87,3.87,0,0,1-.13-.42q-.09-.36-.24-.39h-.19c-.09,0-.14.08-.14.26v20.57a.33.33,0,0,1-.37.37H128a.33.33,0,0,1-.37-.37Z"/><path class="cls-5" d="M165.27,78.77A2.49,2.49,0,0,1,166.9,77a11.09,11.09,0,0,1,3.23-.38,11.58,11.58,0,0,1,3.32.38,2.48,2.48,0,0,1,1.66,1.82l7.46,24.2c0,.15-.09.23-.26.23h-4.86a.48.48,0,0,1-.49-.34l-2-6.42a.47.47,0,0,0-.49-.37h-8.72a.46.46,0,0,0-.48.41l-2,6.35a.48.48,0,0,1-.49.37H158c-.2,0-.3-.08-.3-.23Zm5.31,3.3a3.29,3.29,0,0,0-.19-.54.26.26,0,0,0-.26-.13c-.12,0-.26.22-.41.67l-2.6,8.47a.34.34,0,0,1,0,.11.1.1,0,0,0,0,.07c0,.17.1.26.29.26h5.54c.19,0,.29-.09.29-.26a.1.1,0,0,0,0-.07.34.34,0,0,1,0-.11Z"/><path class="cls-5" d="M191.82,92.13a11.09,11.09,0,0,1-2.47-.3,5.81,5.81,0,0,1-2.4-1.15,4.71,4.71,0,0,1-1.06-1.24,7.88,7.88,0,0,1-.7-1.56,10.13,10.13,0,0,1-.41-1.71,11.16,11.16,0,0,1-.13-1.72v-.71a3.11,3.11,0,0,1,.07-.67,6.93,6.93,0,0,1,2.42-5,8.59,8.59,0,0,1,1.56-1,3.92,3.92,0,0,1,1.82-.49h12.29a.34.34,0,0,1,.37.38V81a.33.33,0,0,1-.37.37H192.07a1.26,1.26,0,0,0-.94.47,3.23,3.23,0,0,0-.61.87,2.11,2.11,0,0,0-.23.74c0,.25,0,.5,0,.74a10.38,10.38,0,0,0,.07,1.23,1.91,1.91,0,0,0,.52,1.11,1.82,1.82,0,0,0,1.13.49c.48,0,1,.07,1.58.07h4.16a9.46,9.46,0,0,1,2.41.32,5.94,5.94,0,0,1,2.34,1.2,4.8,4.8,0,0,1,1.06,1.26,8.52,8.52,0,0,1,.7,1.6,8.68,8.68,0,0,1,.39,1.78,14,14,0,0,1,.12,1.78v.78a2.61,2.61,0,0,1-.08.64,7.47,7.47,0,0,1-2.37,5.19,10.68,10.68,0,0,1-1.55,1,3.61,3.61,0,0,1-1.72.5H185.5a.33.33,0,0,1-.37-.37V98.74a.33.33,0,0,1,.37-.37h12a1.18,1.18,0,0,0,1-.54,4.8,4.8,0,0,0,.6-1,2.42,2.42,0,0,0,.22-.78c0-.25,0-.51,0-.78A11,11,0,0,0,199.2,94a2.14,2.14,0,0,0-.52-1.17,2,2,0,0,0-1.05-.57,7,7,0,0,0-1.62-.17Z"/><path class="cls-5" d="M218.84,102.83a.33.33,0,0,1-.37.37h-4.64a.33.33,0,0,1-.37-.37V81.77a.33.33,0,0,0-.37-.37H207a.32.32,0,0,1-.37-.37V77a.33.33,0,0,1,.37-.38h18.23a.34.34,0,0,1,.37.38V81a.33.33,0,0,1-.37.37h-6.05a.34.34,0,0,0-.38.37Z"/><path class="cls-5" d="M227.83,82.26a6.07,6.07,0,0,1,1.37-4.11,5,5,0,0,1,4-1.58h12.58c.32,0,.49.13.49.38V81a.33.33,0,0,1-.38.37H233.59c-.25,0-.38.14-.38.41v5a.33.33,0,0,0,.38.37H245a.33.33,0,0,1,.37.37v4.27a.32.32,0,0,1-.37.37H233.59a.34.34,0,0,0-.38.37V98a.33.33,0,0,0,.38.37h12.28a.33.33,0,0,1,.38.37v4.09a.34.34,0,0,1-.38.37H231.51a2.78,2.78,0,0,1-1.34-.36,4.19,4.19,0,0,1-1.19-.91,4.49,4.49,0,0,1-.83-1.24,3.17,3.17,0,0,1-.32-1.39Z"/><path class="cls-5" d="M249.66,76.57h13.81a5.43,5.43,0,0,1,2,.41,6.11,6.11,0,0,1,2,1.41,7.77,7.77,0,0,1,1.79,5.28v.85a10.77,10.77,0,0,1-.78,4.75,14,14,0,0,1-1.08,1.36,5.73,5.73,0,0,1-1.52,1.13l-.1.11a.36.36,0,0,0-.05.19.28.28,0,0,0,0,.15,8.88,8.88,0,0,1,1.2,2c.24.55.45,1.13.65,1.72l2,6.28a1.55,1.55,0,0,0,.28.54c.14.16.21.26.21.31s-.08.19-.23.19h-5.12q-.22,0-.48-.39a2.41,2.41,0,0,1-.34-.65l-2.3-6.5c-.35-1.39-1.05-2.15-2.11-2.3h-4.53a.33.33,0,0,0-.38.37v9.1a.33.33,0,0,1-.37.37h-4.64a.33.33,0,0,1-.37-.37V77A.33.33,0,0,1,249.66,76.57Zm5.39,4.83a.34.34,0,0,0-.38.37v6c0,.25.14.38.41.38h6.72a1.92,1.92,0,0,0,1.15-.52,2.75,2.75,0,0,0,.8-1.3,6,6,0,0,0,.28-1.9,8.9,8.9,0,0,0,0-.94,2.41,2.41,0,0,0-.25-.8c-.39-.82-.86-1.26-1.41-1.34Z"/><path class="cls-5" d="M273.27,76.57h4.65a.34.34,0,0,1,.37.38v25.88a.33.33,0,0,1-.37.37h-4.65a.33.33,0,0,1-.37-.37V77A.34.34,0,0,1,273.27,76.57Zm18.24.12c0,.07,0,.19-.08.37L284.52,88.9a4.1,4.1,0,0,0-.24.37,1.27,1.27,0,0,0-.16.37,1,1,0,0,0,.13.38,3.5,3.5,0,0,0,.2.37l7.2,12.32c.1.18.13.3.08.37a.22.22,0,0,1-.19.12H285.9a.24.24,0,0,1-.22-.12,1,1,0,0,1-.11-.18l-5.83-10.4a6.66,6.66,0,0,1-1.12-2.78,1.22,1.22,0,0,1,0-.32,3,3,0,0,1,.15-.48,6,6,0,0,1,.33-.76c.15-.3.35-.68.6-1.15l5.6-10.14c0-.05.06-.11.11-.18a.26.26,0,0,1,.23-.12h5.64A.23.23,0,0,1,291.51,76.69Z"/><path class="cls-5" d="M294.55,82.26a6.07,6.07,0,0,1,1.37-4.11,5,5,0,0,1,4-1.58h12.58c.32,0,.49.13.49.38V81a.33.33,0,0,1-.37.37H300.3c-.24,0-.37.14-.37.41v5a.33.33,0,0,0,.37.37h11.4a.34.34,0,0,1,.38.37v4.27a.33.33,0,0,1-.38.37H300.3a.33.33,0,0,0-.37.37V98a.33.33,0,0,0,.37.37h12.3a.33.33,0,0,1,.37.37v4.09a.33.33,0,0,1-.37.37H298.23a2.78,2.78,0,0,1-1.34-.36,4.19,4.19,0,0,1-1.19-.91,4.49,4.49,0,0,1-.83-1.24,3.17,3.17,0,0,1-.32-1.39Z"/><path class="cls-5" d="M324.85,103.2c-.37,0-.56-.31-.56-.93V94a4.79,4.79,0,0,1-1-.45,2.75,2.75,0,0,1-1-1l-7.13-15.37c-.2-.37-.14-.56.19-.56h5.12a.64.64,0,0,1,.63.45l5.27,11.44a.64.64,0,0,0,.6.37.46.46,0,0,0,.35-.1l.24-.27,5.09-11.37c.15-.34.36-.52.63-.52h5c.18,0,.28.06.32.17a.53.53,0,0,1,0,.35L331.75,92.5a4.35,4.35,0,0,1-1,1,3,3,0,0,1-.89.45v8.28c0,.62-.17.93-.52.93Z"/><text class="cls-6" transform="translate(127.23 129.87)">ADS<tspan class="cls-7" x="61.34" y="0">.</tspan><tspan class="cls-8" x="72.73" y="0" xml:space="preserve"> DIGI</tspan><tspan class="cls-9" x="158.32" y="0">T</tspan><tspan class="cls-8" x="176.73" y="0">A</tspan><tspan class="cls-10" x="197.08" y="0">L</tspan></text></g></g></svg>